<mxfile host="app.diagrams.net" agent="Mozilla/5.0 (Windows NT 10.0; Win64; x64) AppleWebKit/537.36 (KHTML, like Gecko) Chrome/132.0.0.0 Safari/537.36 OPR/117.0.0.0 (Edition Yx GX 03)" version="26.2.9">
  <diagram name="Страница — 1" id="yFHFzxeWR5zKnFrOLoWG">
    <mxGraphModel dx="2137" dy="542" grid="1" gridSize="10" guides="1" tooltips="1" connect="1" arrows="1" fold="1" page="1" pageScale="1" pageWidth="827" pageHeight="1169" math="0" shadow="0">
      <root>
        <mxCell id="0" />
        <mxCell id="1" parent="0" />
        <mxCell id="sHYd67XL0eap0bm4rIJg-1" value="Пользователь" style="shape=umlActor;verticalLabelPosition=bottom;verticalAlign=top;html=1;outlineConnect=0;" vertex="1" parent="1">
          <mxGeometry x="60" y="20" width="30" height="60" as="geometry" />
        </mxCell>
        <mxCell id="sHYd67XL0eap0bm4rIJg-2" value="" style="endArrow=none;dashed=1;html=1;rounded=0;entryX=0.5;entryY=0.5;entryDx=0;entryDy=0;entryPerimeter=0;" edge="1" parent="1" target="sHYd67XL0eap0bm4rIJg-1">
          <mxGeometry width="50" height="50" relative="1" as="geometry">
            <mxPoint x="75" y="1800" as="sourcePoint" />
            <mxPoint x="80" y="140" as="targetPoint" />
          </mxGeometry>
        </mxCell>
        <mxCell id="sHYd67XL0eap0bm4rIJg-3" value="Страница с игрой" style="shape=umlBoundary;whiteSpace=wrap;html=1;" vertex="1" parent="1">
          <mxGeometry x="170" y="20" width="100" height="80" as="geometry" />
        </mxCell>
        <mxCell id="sHYd67XL0eap0bm4rIJg-4" value="" style="endArrow=none;dashed=1;html=1;rounded=0;entryX=0.5;entryY=0.5;entryDx=0;entryDy=0;entryPerimeter=0;" edge="1" parent="1" source="sHYd67XL0eap0bm4rIJg-10">
          <mxGeometry width="50" height="50" relative="1" as="geometry">
            <mxPoint x="230" y="800" as="sourcePoint" />
            <mxPoint x="230" y="100" as="targetPoint" />
          </mxGeometry>
        </mxCell>
        <mxCell id="sHYd67XL0eap0bm4rIJg-6" value="Веб-сервер" style="ellipse;shape=umlControl;whiteSpace=wrap;html=1;" vertex="1" parent="1">
          <mxGeometry x="378" y="10" width="71" height="80" as="geometry" />
        </mxCell>
        <mxCell id="sHYd67XL0eap0bm4rIJg-7" value="" style="endArrow=none;dashed=1;html=1;rounded=0;entryX=0.5;entryY=0.5;entryDx=0;entryDy=0;entryPerimeter=0;" edge="1" parent="1" source="sHYd67XL0eap0bm4rIJg-17">
          <mxGeometry width="50" height="50" relative="1" as="geometry">
            <mxPoint x="414" y="790" as="sourcePoint" />
            <mxPoint x="414" y="90" as="targetPoint" />
          </mxGeometry>
        </mxCell>
        <mxCell id="sHYd67XL0eap0bm4rIJg-8" value="БД" style="ellipse;shape=umlEntity;whiteSpace=wrap;html=1;" vertex="1" parent="1">
          <mxGeometry x="560" y="10" width="80" height="80" as="geometry" />
        </mxCell>
        <mxCell id="sHYd67XL0eap0bm4rIJg-9" value="" style="endArrow=none;dashed=1;html=1;rounded=0;entryX=0.5;entryY=0.5;entryDx=0;entryDy=0;entryPerimeter=0;" edge="1" parent="1" source="sHYd67XL0eap0bm4rIJg-19">
          <mxGeometry width="50" height="50" relative="1" as="geometry">
            <mxPoint x="599.5" y="790" as="sourcePoint" />
            <mxPoint x="599.5" y="90" as="targetPoint" />
          </mxGeometry>
        </mxCell>
        <mxCell id="sHYd67XL0eap0bm4rIJg-11" value="" style="endArrow=none;dashed=1;html=1;rounded=0;entryX=0.5;entryY=0.5;entryDx=0;entryDy=0;entryPerimeter=0;" edge="1" parent="1" source="sHYd67XL0eap0bm4rIJg-48" target="sHYd67XL0eap0bm4rIJg-10">
          <mxGeometry width="50" height="50" relative="1" as="geometry">
            <mxPoint x="230" y="800" as="sourcePoint" />
            <mxPoint x="230" y="100" as="targetPoint" />
          </mxGeometry>
        </mxCell>
        <mxCell id="sHYd67XL0eap0bm4rIJg-10" value="" style="rounded=0;whiteSpace=wrap;html=1;" vertex="1" parent="1">
          <mxGeometry x="220" y="110" width="20" height="160" as="geometry" />
        </mxCell>
        <mxCell id="sHYd67XL0eap0bm4rIJg-12" value="" style="endArrow=classic;html=1;rounded=0;" edge="1" parent="1">
          <mxGeometry width="50" height="50" relative="1" as="geometry">
            <mxPoint x="80" y="120" as="sourcePoint" />
            <mxPoint x="220" y="120" as="targetPoint" />
          </mxGeometry>
        </mxCell>
        <mxCell id="sHYd67XL0eap0bm4rIJg-14" value="запрос на запуск игры" style="edgeLabel;html=1;align=center;verticalAlign=middle;resizable=0;points=[];" vertex="1" connectable="0" parent="sHYd67XL0eap0bm4rIJg-12">
          <mxGeometry x="-0.2027" y="2" relative="1" as="geometry">
            <mxPoint as="offset" />
          </mxGeometry>
        </mxCell>
        <mxCell id="sHYd67XL0eap0bm4rIJg-15" value="" style="endArrow=classic;html=1;rounded=0;" edge="1" parent="1">
          <mxGeometry width="50" height="50" relative="1" as="geometry">
            <mxPoint x="244" y="530" as="sourcePoint" />
            <mxPoint x="404" y="530" as="targetPoint" />
          </mxGeometry>
        </mxCell>
        <mxCell id="sHYd67XL0eap0bm4rIJg-16" value="запрос на запуск игры" style="edgeLabel;html=1;align=center;verticalAlign=middle;resizable=0;points=[];" vertex="1" connectable="0" parent="sHYd67XL0eap0bm4rIJg-15">
          <mxGeometry x="-0.2027" y="2" relative="1" as="geometry">
            <mxPoint as="offset" />
          </mxGeometry>
        </mxCell>
        <mxCell id="sHYd67XL0eap0bm4rIJg-18" value="" style="endArrow=none;dashed=1;html=1;rounded=0;entryX=0.5;entryY=0.5;entryDx=0;entryDy=0;entryPerimeter=0;" edge="1" parent="1" source="sHYd67XL0eap0bm4rIJg-38" target="sHYd67XL0eap0bm4rIJg-17">
          <mxGeometry width="50" height="50" relative="1" as="geometry">
            <mxPoint x="414" y="790" as="sourcePoint" />
            <mxPoint x="414" y="90" as="targetPoint" />
          </mxGeometry>
        </mxCell>
        <mxCell id="sHYd67XL0eap0bm4rIJg-17" value="" style="rounded=0;whiteSpace=wrap;html=1;" vertex="1" parent="1">
          <mxGeometry x="404" y="130" width="20" height="120" as="geometry" />
        </mxCell>
        <mxCell id="sHYd67XL0eap0bm4rIJg-20" value="" style="endArrow=none;dashed=1;html=1;rounded=0;entryX=0.5;entryY=0.5;entryDx=0;entryDy=0;entryPerimeter=0;" edge="1" parent="1" source="sHYd67XL0eap0bm4rIJg-51" target="sHYd67XL0eap0bm4rIJg-19">
          <mxGeometry width="50" height="50" relative="1" as="geometry">
            <mxPoint x="599.5" y="790" as="sourcePoint" />
            <mxPoint x="599.5" y="90" as="targetPoint" />
          </mxGeometry>
        </mxCell>
        <mxCell id="sHYd67XL0eap0bm4rIJg-19" value="" style="rounded=0;whiteSpace=wrap;html=1;" vertex="1" parent="1">
          <mxGeometry x="590" y="180" width="20" height="70" as="geometry" />
        </mxCell>
        <mxCell id="sHYd67XL0eap0bm4rIJg-21" value="" style="endArrow=classic;html=1;rounded=0;exitX=1.001;exitY=0.585;exitDx=0;exitDy=0;exitPerimeter=0;" edge="1" parent="1" source="sHYd67XL0eap0bm4rIJg-17">
          <mxGeometry width="50" height="50" relative="1" as="geometry">
            <mxPoint x="460" y="230" as="sourcePoint" />
            <mxPoint x="590" y="200" as="targetPoint" />
          </mxGeometry>
        </mxCell>
        <mxCell id="sHYd67XL0eap0bm4rIJg-22" value="Проверка авторизации" style="edgeLabel;html=1;align=center;verticalAlign=middle;resizable=0;points=[];" vertex="1" connectable="0" parent="sHYd67XL0eap0bm4rIJg-21">
          <mxGeometry x="0.1494" y="-1" relative="1" as="geometry">
            <mxPoint as="offset" />
          </mxGeometry>
        </mxCell>
        <mxCell id="sHYd67XL0eap0bm4rIJg-24" value="" style="endArrow=none;html=1;rounded=0;exitX=1.001;exitY=0.585;exitDx=0;exitDy=0;exitPerimeter=0;startFill=1;startArrow=classic;dashed=1;" edge="1" parent="1">
          <mxGeometry width="50" height="50" relative="1" as="geometry">
            <mxPoint x="424" y="240" as="sourcePoint" />
            <mxPoint x="590" y="240" as="targetPoint" />
          </mxGeometry>
        </mxCell>
        <mxCell id="sHYd67XL0eap0bm4rIJg-25" value="не авторизован" style="edgeLabel;html=1;align=center;verticalAlign=middle;resizable=0;points=[];" vertex="1" connectable="0" parent="sHYd67XL0eap0bm4rIJg-24">
          <mxGeometry x="0.1494" y="-1" relative="1" as="geometry">
            <mxPoint as="offset" />
          </mxGeometry>
        </mxCell>
        <mxCell id="sHYd67XL0eap0bm4rIJg-26" value="" style="endArrow=none;html=1;rounded=0;exitX=1.001;exitY=0.585;exitDx=0;exitDy=0;exitPerimeter=0;startFill=1;startArrow=classic;dashed=1;" edge="1" parent="1">
          <mxGeometry width="50" height="50" relative="1" as="geometry">
            <mxPoint x="240" y="240" as="sourcePoint" />
            <mxPoint x="406" y="240" as="targetPoint" />
          </mxGeometry>
        </mxCell>
        <mxCell id="sHYd67XL0eap0bm4rIJg-27" value="не авторизован" style="edgeLabel;html=1;align=center;verticalAlign=middle;resizable=0;points=[];" vertex="1" connectable="0" parent="sHYd67XL0eap0bm4rIJg-26">
          <mxGeometry x="0.1494" y="-1" relative="1" as="geometry">
            <mxPoint as="offset" />
          </mxGeometry>
        </mxCell>
        <mxCell id="sHYd67XL0eap0bm4rIJg-28" value="" style="endArrow=none;html=1;rounded=0;startFill=1;startArrow=classic;dashed=1;" edge="1" parent="1">
          <mxGeometry width="50" height="50" relative="1" as="geometry">
            <mxPoint x="80" y="260" as="sourcePoint" />
            <mxPoint x="220" y="260" as="targetPoint" />
          </mxGeometry>
        </mxCell>
        <mxCell id="sHYd67XL0eap0bm4rIJg-29" value="не авторизован" style="edgeLabel;html=1;align=center;verticalAlign=middle;resizable=0;points=[];" vertex="1" connectable="0" parent="sHYd67XL0eap0bm4rIJg-28">
          <mxGeometry x="0.1494" y="-1" relative="1" as="geometry">
            <mxPoint as="offset" />
          </mxGeometry>
        </mxCell>
        <mxCell id="sHYd67XL0eap0bm4rIJg-30" value="" style="rounded=0;whiteSpace=wrap;html=1;" vertex="1" parent="1">
          <mxGeometry x="220" y="300" width="20" height="160" as="geometry" />
        </mxCell>
        <mxCell id="sHYd67XL0eap0bm4rIJg-32" value="" style="endArrow=classic;html=1;rounded=0;" edge="1" parent="1">
          <mxGeometry width="50" height="50" relative="1" as="geometry">
            <mxPoint x="80" y="320" as="sourcePoint" />
            <mxPoint x="220" y="320" as="targetPoint" />
          </mxGeometry>
        </mxCell>
        <mxCell id="sHYd67XL0eap0bm4rIJg-33" value="Авторизоваться" style="edgeLabel;html=1;align=center;verticalAlign=middle;resizable=0;points=[];" vertex="1" connectable="0" parent="sHYd67XL0eap0bm4rIJg-32">
          <mxGeometry x="-0.2027" y="2" relative="1" as="geometry">
            <mxPoint as="offset" />
          </mxGeometry>
        </mxCell>
        <mxCell id="sHYd67XL0eap0bm4rIJg-34" value="" style="endArrow=classic;html=1;rounded=0;entryX=0.041;entryY=0.078;entryDx=0;entryDy=0;entryPerimeter=0;" edge="1" parent="1" target="sHYd67XL0eap0bm4rIJg-38">
          <mxGeometry width="50" height="50" relative="1" as="geometry">
            <mxPoint x="240" y="320" as="sourcePoint" />
            <mxPoint x="380" y="320" as="targetPoint" />
          </mxGeometry>
        </mxCell>
        <mxCell id="sHYd67XL0eap0bm4rIJg-35" value="авторизоваться" style="edgeLabel;html=1;align=center;verticalAlign=middle;resizable=0;points=[];" vertex="1" connectable="0" parent="sHYd67XL0eap0bm4rIJg-34">
          <mxGeometry x="-0.2027" y="2" relative="1" as="geometry">
            <mxPoint x="14" as="offset" />
          </mxGeometry>
        </mxCell>
        <mxCell id="sHYd67XL0eap0bm4rIJg-36" value="" style="endArrow=classic;html=1;rounded=0;" edge="1" parent="1">
          <mxGeometry width="50" height="50" relative="1" as="geometry">
            <mxPoint x="420" y="340" as="sourcePoint" />
            <mxPoint x="590" y="340" as="targetPoint" />
          </mxGeometry>
        </mxCell>
        <mxCell id="sHYd67XL0eap0bm4rIJg-37" value="проверить авторизацию" style="edgeLabel;html=1;align=center;verticalAlign=middle;resizable=0;points=[];" vertex="1" connectable="0" parent="sHYd67XL0eap0bm4rIJg-36">
          <mxGeometry x="-0.2027" y="2" relative="1" as="geometry">
            <mxPoint x="14" as="offset" />
          </mxGeometry>
        </mxCell>
        <mxCell id="sHYd67XL0eap0bm4rIJg-39" value="" style="endArrow=none;dashed=1;html=1;rounded=0;entryX=0.5;entryY=0.5;entryDx=0;entryDy=0;entryPerimeter=0;" edge="1" parent="1" target="sHYd67XL0eap0bm4rIJg-38">
          <mxGeometry width="50" height="50" relative="1" as="geometry">
            <mxPoint x="414" y="1850.7999267578125" as="sourcePoint" />
            <mxPoint x="414" y="190" as="targetPoint" />
          </mxGeometry>
        </mxCell>
        <mxCell id="sHYd67XL0eap0bm4rIJg-38" value="" style="rounded=0;whiteSpace=wrap;html=1;" vertex="1" parent="1">
          <mxGeometry x="404" y="310" width="20" height="120" as="geometry" />
        </mxCell>
        <mxCell id="sHYd67XL0eap0bm4rIJg-40" value="" style="rounded=0;whiteSpace=wrap;html=1;" vertex="1" parent="1">
          <mxGeometry x="590" y="320" width="20" height="70" as="geometry" />
        </mxCell>
        <mxCell id="sHYd67XL0eap0bm4rIJg-41" value="" style="endArrow=none;html=1;rounded=0;exitX=1.001;exitY=0.585;exitDx=0;exitDy=0;exitPerimeter=0;startFill=1;startArrow=classic;dashed=1;" edge="1" parent="1">
          <mxGeometry width="50" height="50" relative="1" as="geometry">
            <mxPoint x="424" y="379.5" as="sourcePoint" />
            <mxPoint x="590" y="379.5" as="targetPoint" />
          </mxGeometry>
        </mxCell>
        <mxCell id="sHYd67XL0eap0bm4rIJg-42" value="Авторизация успешна" style="edgeLabel;html=1;align=center;verticalAlign=middle;resizable=0;points=[];" vertex="1" connectable="0" parent="sHYd67XL0eap0bm4rIJg-41">
          <mxGeometry x="0.1494" y="-1" relative="1" as="geometry">
            <mxPoint as="offset" />
          </mxGeometry>
        </mxCell>
        <mxCell id="sHYd67XL0eap0bm4rIJg-44" value="" style="endArrow=none;html=1;rounded=0;exitX=1.001;exitY=0.585;exitDx=0;exitDy=0;exitPerimeter=0;startFill=1;startArrow=classic;dashed=1;" edge="1" parent="1">
          <mxGeometry width="50" height="50" relative="1" as="geometry">
            <mxPoint x="238" y="420" as="sourcePoint" />
            <mxPoint x="404" y="420" as="targetPoint" />
          </mxGeometry>
        </mxCell>
        <mxCell id="sHYd67XL0eap0bm4rIJg-45" value="Авторизация успешна" style="edgeLabel;html=1;align=center;verticalAlign=middle;resizable=0;points=[];" vertex="1" connectable="0" parent="sHYd67XL0eap0bm4rIJg-44">
          <mxGeometry x="0.1494" y="-1" relative="1" as="geometry">
            <mxPoint as="offset" />
          </mxGeometry>
        </mxCell>
        <mxCell id="sHYd67XL0eap0bm4rIJg-46" value="" style="endArrow=none;html=1;rounded=0;startFill=1;startArrow=classic;dashed=1;" edge="1" parent="1">
          <mxGeometry width="50" height="50" relative="1" as="geometry">
            <mxPoint x="80" y="440" as="sourcePoint" />
            <mxPoint x="220" y="440" as="targetPoint" />
          </mxGeometry>
        </mxCell>
        <mxCell id="sHYd67XL0eap0bm4rIJg-47" value="Авторизация успешна" style="edgeLabel;html=1;align=center;verticalAlign=middle;resizable=0;points=[];" vertex="1" connectable="0" parent="sHYd67XL0eap0bm4rIJg-46">
          <mxGeometry x="0.1494" y="-1" relative="1" as="geometry">
            <mxPoint as="offset" />
          </mxGeometry>
        </mxCell>
        <mxCell id="sHYd67XL0eap0bm4rIJg-49" value="" style="endArrow=none;dashed=1;html=1;rounded=0;entryX=0.5;entryY=0.5;entryDx=0;entryDy=0;entryPerimeter=0;" edge="1" parent="1" target="sHYd67XL0eap0bm4rIJg-48">
          <mxGeometry width="50" height="50" relative="1" as="geometry">
            <mxPoint x="230" y="1860" as="sourcePoint" />
            <mxPoint x="230" y="190" as="targetPoint" />
          </mxGeometry>
        </mxCell>
        <mxCell id="sHYd67XL0eap0bm4rIJg-48" value="" style="rounded=0;whiteSpace=wrap;html=1;" vertex="1" parent="1">
          <mxGeometry x="220" y="500" width="20" height="420" as="geometry" />
        </mxCell>
        <mxCell id="sHYd67XL0eap0bm4rIJg-50" value="" style="rounded=0;whiteSpace=wrap;html=1;" vertex="1" parent="1">
          <mxGeometry x="404" y="520" width="20" height="330" as="geometry" />
        </mxCell>
        <mxCell id="sHYd67XL0eap0bm4rIJg-52" value="" style="endArrow=none;dashed=1;html=1;rounded=0;entryX=0.5;entryY=0.5;entryDx=0;entryDy=0;entryPerimeter=0;" edge="1" parent="1" target="sHYd67XL0eap0bm4rIJg-51">
          <mxGeometry width="50" height="50" relative="1" as="geometry">
            <mxPoint x="600" y="1950" as="sourcePoint" />
            <mxPoint x="600" y="215" as="targetPoint" />
          </mxGeometry>
        </mxCell>
        <mxCell id="sHYd67XL0eap0bm4rIJg-51" value="" style="rounded=0;whiteSpace=wrap;html=1;" vertex="1" parent="1">
          <mxGeometry x="590" y="540" width="20" height="230" as="geometry" />
        </mxCell>
        <mxCell id="sHYd67XL0eap0bm4rIJg-55" value="alt" style="shape=umlFrame;whiteSpace=wrap;html=1;pointerEvents=0;" vertex="1" parent="1">
          <mxGeometry x="-10" y="560" width="800" height="1140" as="geometry" />
        </mxCell>
        <mxCell id="sHYd67XL0eap0bm4rIJg-57" value="" style="endArrow=classic;html=1;rounded=0;" edge="1" parent="1">
          <mxGeometry width="50" height="50" relative="1" as="geometry">
            <mxPoint x="80" y="520" as="sourcePoint" />
            <mxPoint x="220" y="520" as="targetPoint" />
          </mxGeometry>
        </mxCell>
        <mxCell id="sHYd67XL0eap0bm4rIJg-58" value="запрос на запуск игры&lt;div&gt;(повторно)&lt;/div&gt;" style="edgeLabel;html=1;align=center;verticalAlign=middle;resizable=0;points=[];" vertex="1" connectable="0" parent="sHYd67XL0eap0bm4rIJg-57">
          <mxGeometry x="-0.2027" y="2" relative="1" as="geometry">
            <mxPoint x="4" y="-28" as="offset" />
          </mxGeometry>
        </mxCell>
        <mxCell id="sHYd67XL0eap0bm4rIJg-59" value="" style="endArrow=classic;html=1;rounded=0;" edge="1" parent="1">
          <mxGeometry width="50" height="50" relative="1" as="geometry">
            <mxPoint x="424" y="550" as="sourcePoint" />
            <mxPoint x="590" y="550" as="targetPoint" />
          </mxGeometry>
        </mxCell>
        <mxCell id="sHYd67XL0eap0bm4rIJg-60" value="Проверить доступность игры" style="edgeLabel;html=1;align=center;verticalAlign=middle;resizable=0;points=[];" vertex="1" connectable="0" parent="sHYd67XL0eap0bm4rIJg-59">
          <mxGeometry x="-0.2027" y="2" relative="1" as="geometry">
            <mxPoint x="12" y="-8" as="offset" />
          </mxGeometry>
        </mxCell>
        <mxCell id="sHYd67XL0eap0bm4rIJg-61" value="" style="endArrow=none;html=1;rounded=0;exitX=1.001;exitY=0.585;exitDx=0;exitDy=0;exitPerimeter=0;startFill=1;startArrow=classic;dashed=1;" edge="1" parent="1">
          <mxGeometry width="50" height="50" relative="1" as="geometry">
            <mxPoint x="424" y="580" as="sourcePoint" />
            <mxPoint x="590" y="580" as="targetPoint" />
          </mxGeometry>
        </mxCell>
        <mxCell id="sHYd67XL0eap0bm4rIJg-62" value="Игра недоступна" style="edgeLabel;html=1;align=center;verticalAlign=middle;resizable=0;points=[];" vertex="1" connectable="0" parent="sHYd67XL0eap0bm4rIJg-61">
          <mxGeometry x="0.1494" y="-1" relative="1" as="geometry">
            <mxPoint y="4" as="offset" />
          </mxGeometry>
        </mxCell>
        <mxCell id="sHYd67XL0eap0bm4rIJg-63" value="" style="endArrow=none;html=1;rounded=0;startFill=1;startArrow=classic;dashed=1;" edge="1" parent="1">
          <mxGeometry width="50" height="50" relative="1" as="geometry">
            <mxPoint x="80" y="650" as="sourcePoint" />
            <mxPoint x="220" y="649.5" as="targetPoint" />
          </mxGeometry>
        </mxCell>
        <mxCell id="sHYd67XL0eap0bm4rIJg-64" value="Игра недоступна" style="edgeLabel;html=1;align=center;verticalAlign=middle;resizable=0;points=[];" vertex="1" connectable="0" parent="sHYd67XL0eap0bm4rIJg-63">
          <mxGeometry x="0.1494" y="-1" relative="1" as="geometry">
            <mxPoint x="-10" y="4" as="offset" />
          </mxGeometry>
        </mxCell>
        <mxCell id="sHYd67XL0eap0bm4rIJg-65" value="" style="endArrow=none;html=1;rounded=0;startFill=1;startArrow=classic;dashed=1;exitX=0.951;exitY=0.267;exitDx=0;exitDy=0;exitPerimeter=0;" edge="1" parent="1" source="sHYd67XL0eap0bm4rIJg-48">
          <mxGeometry width="50" height="50" relative="1" as="geometry">
            <mxPoint x="254" y="610.5" as="sourcePoint" />
            <mxPoint x="404" y="610" as="targetPoint" />
          </mxGeometry>
        </mxCell>
        <mxCell id="sHYd67XL0eap0bm4rIJg-66" value="Игра недоступна" style="edgeLabel;html=1;align=center;verticalAlign=middle;resizable=0;points=[];" vertex="1" connectable="0" parent="sHYd67XL0eap0bm4rIJg-65">
          <mxGeometry x="0.1494" y="-1" relative="1" as="geometry">
            <mxPoint y="4" as="offset" />
          </mxGeometry>
        </mxCell>
        <mxCell id="sHYd67XL0eap0bm4rIJg-67" value="" style="endArrow=none;dashed=1;html=1;rounded=0;entryX=0.997;entryY=0.15;entryDx=0;entryDy=0;entryPerimeter=0;" edge="1" parent="1" target="sHYd67XL0eap0bm4rIJg-55">
          <mxGeometry width="50" height="50" relative="1" as="geometry">
            <mxPoint x="10" y="730" as="sourcePoint" />
            <mxPoint x="60" y="680" as="targetPoint" />
            <Array as="points">
              <mxPoint x="750" y="730" />
            </Array>
          </mxGeometry>
        </mxCell>
        <mxCell id="sHYd67XL0eap0bm4rIJg-68" value="(Игра недоступна)" style="text;html=1;align=center;verticalAlign=middle;resizable=0;points=[];autosize=1;strokeColor=none;fillColor=none;" vertex="1" parent="1">
          <mxGeometry x="60" y="560" width="130" height="30" as="geometry" />
        </mxCell>
        <mxCell id="sHYd67XL0eap0bm4rIJg-69" value="" style="endArrow=none;html=1;rounded=0;exitX=1.001;exitY=0.585;exitDx=0;exitDy=0;exitPerimeter=0;startFill=1;startArrow=classic;dashed=1;" edge="1" parent="1">
          <mxGeometry width="50" height="50" relative="1" as="geometry">
            <mxPoint x="424" y="750" as="sourcePoint" />
            <mxPoint x="590" y="750" as="targetPoint" />
          </mxGeometry>
        </mxCell>
        <mxCell id="sHYd67XL0eap0bm4rIJg-70" value="Игра&amp;nbsp;&lt;span style=&quot;background-color: light-dark(#ffffff, var(--ge-dark-color, #121212)); color: light-dark(rgb(0, 0, 0), rgb(255, 255, 255));&quot;&gt;доступна&lt;/span&gt;" style="edgeLabel;html=1;align=center;verticalAlign=middle;resizable=0;points=[];" vertex="1" connectable="0" parent="sHYd67XL0eap0bm4rIJg-69">
          <mxGeometry x="0.1494" y="-1" relative="1" as="geometry">
            <mxPoint y="4" as="offset" />
          </mxGeometry>
        </mxCell>
        <mxCell id="sHYd67XL0eap0bm4rIJg-71" value="" style="rounded=0;whiteSpace=wrap;html=1;" vertex="1" parent="1">
          <mxGeometry x="590" y="790" width="20" height="40" as="geometry" />
        </mxCell>
        <mxCell id="sHYd67XL0eap0bm4rIJg-72" value="" style="endArrow=classic;html=1;rounded=0;" edge="1" parent="1">
          <mxGeometry width="50" height="50" relative="1" as="geometry">
            <mxPoint x="424" y="800" as="sourcePoint" />
            <mxPoint x="590" y="800" as="targetPoint" />
          </mxGeometry>
        </mxCell>
        <mxCell id="sHYd67XL0eap0bm4rIJg-73" value="Загрузить данные игры" style="edgeLabel;html=1;align=center;verticalAlign=middle;resizable=0;points=[];" vertex="1" connectable="0" parent="sHYd67XL0eap0bm4rIJg-72">
          <mxGeometry x="-0.2027" y="2" relative="1" as="geometry">
            <mxPoint x="12" y="-8" as="offset" />
          </mxGeometry>
        </mxCell>
        <mxCell id="sHYd67XL0eap0bm4rIJg-74" value="" style="endArrow=none;html=1;rounded=0;exitX=1.001;exitY=0.585;exitDx=0;exitDy=0;exitPerimeter=0;startFill=1;startArrow=classic;dashed=1;" edge="1" parent="1">
          <mxGeometry width="50" height="50" relative="1" as="geometry">
            <mxPoint x="424" y="820" as="sourcePoint" />
            <mxPoint x="590" y="820" as="targetPoint" />
          </mxGeometry>
        </mxCell>
        <mxCell id="sHYd67XL0eap0bm4rIJg-75" value="Данные игры" style="edgeLabel;html=1;align=center;verticalAlign=middle;resizable=0;points=[];" vertex="1" connectable="0" parent="sHYd67XL0eap0bm4rIJg-74">
          <mxGeometry x="0.1494" y="-1" relative="1" as="geometry">
            <mxPoint y="4" as="offset" />
          </mxGeometry>
        </mxCell>
        <mxCell id="sHYd67XL0eap0bm4rIJg-76" value="" style="endArrow=none;html=1;rounded=0;exitX=1.001;exitY=0.585;exitDx=0;exitDy=0;exitPerimeter=0;startFill=1;startArrow=classic;dashed=1;" edge="1" parent="1">
          <mxGeometry width="50" height="50" relative="1" as="geometry">
            <mxPoint x="238" y="850" as="sourcePoint" />
            <mxPoint x="404" y="850" as="targetPoint" />
          </mxGeometry>
        </mxCell>
        <mxCell id="sHYd67XL0eap0bm4rIJg-77" value="Данные игры" style="edgeLabel;html=1;align=center;verticalAlign=middle;resizable=0;points=[];" vertex="1" connectable="0" parent="sHYd67XL0eap0bm4rIJg-76">
          <mxGeometry x="0.1494" y="-1" relative="1" as="geometry">
            <mxPoint y="4" as="offset" />
          </mxGeometry>
        </mxCell>
        <mxCell id="sHYd67XL0eap0bm4rIJg-78" value="" style="endArrow=none;html=1;rounded=0;exitX=1.001;exitY=0.585;exitDx=0;exitDy=0;exitPerimeter=0;startFill=1;startArrow=classic;dashed=1;" edge="1" parent="1">
          <mxGeometry width="50" height="50" relative="1" as="geometry">
            <mxPoint x="74" y="920" as="sourcePoint" />
            <mxPoint x="240" y="920" as="targetPoint" />
          </mxGeometry>
        </mxCell>
        <mxCell id="sHYd67XL0eap0bm4rIJg-79" value="Данные игры" style="edgeLabel;html=1;align=center;verticalAlign=middle;resizable=0;points=[];" vertex="1" connectable="0" parent="sHYd67XL0eap0bm4rIJg-78">
          <mxGeometry x="0.1494" y="-1" relative="1" as="geometry">
            <mxPoint x="-19" y="-11" as="offset" />
          </mxGeometry>
        </mxCell>
        <mxCell id="sHYd67XL0eap0bm4rIJg-86" style="edgeStyle=orthogonalEdgeStyle;rounded=0;orthogonalLoop=1;jettySize=auto;html=1;entryX=1;entryY=0.75;entryDx=0;entryDy=0;" edge="1" parent="1" source="sHYd67XL0eap0bm4rIJg-80" target="sHYd67XL0eap0bm4rIJg-80">
          <mxGeometry relative="1" as="geometry">
            <mxPoint x="330" y="1110" as="targetPoint" />
            <Array as="points">
              <mxPoint x="330" y="960" />
              <mxPoint x="330" y="993" />
            </Array>
          </mxGeometry>
        </mxCell>
        <mxCell id="sHYd67XL0eap0bm4rIJg-87" value="отобразить игру" style="edgeLabel;html=1;align=center;verticalAlign=middle;resizable=0;points=[];" vertex="1" connectable="0" parent="sHYd67XL0eap0bm4rIJg-86">
          <mxGeometry x="-0.3298" y="-3" relative="1" as="geometry">
            <mxPoint y="-13" as="offset" />
          </mxGeometry>
        </mxCell>
        <mxCell id="sHYd67XL0eap0bm4rIJg-80" value="" style="rounded=0;whiteSpace=wrap;html=1;" vertex="1" parent="1">
          <mxGeometry x="220" y="940" width="20" height="70" as="geometry" />
        </mxCell>
        <mxCell id="sHYd67XL0eap0bm4rIJg-81" value="(Игра доступна)" style="text;html=1;align=center;verticalAlign=middle;resizable=0;points=[];autosize=1;strokeColor=none;fillColor=none;" vertex="1" parent="1">
          <mxGeometry x="10" y="730" width="110" height="30" as="geometry" />
        </mxCell>
        <mxCell id="sHYd67XL0eap0bm4rIJg-82" value="" style="endArrow=classic;html=1;rounded=0;" edge="1" parent="1">
          <mxGeometry width="50" height="50" relative="1" as="geometry">
            <mxPoint x="80" y="950" as="sourcePoint" />
            <mxPoint x="220" y="950" as="targetPoint" />
          </mxGeometry>
        </mxCell>
        <mxCell id="sHYd67XL0eap0bm4rIJg-83" value="Играть в игру" style="edgeLabel;html=1;align=center;verticalAlign=middle;resizable=0;points=[];" vertex="1" connectable="0" parent="sHYd67XL0eap0bm4rIJg-82">
          <mxGeometry x="-0.2027" y="2" relative="1" as="geometry">
            <mxPoint x="4" y="-8" as="offset" />
          </mxGeometry>
        </mxCell>
        <mxCell id="sHYd67XL0eap0bm4rIJg-84" value="" style="endArrow=none;html=1;rounded=0;exitX=1.001;exitY=0.585;exitDx=0;exitDy=0;exitPerimeter=0;startFill=1;startArrow=classic;dashed=1;" edge="1" parent="1">
          <mxGeometry width="50" height="50" relative="1" as="geometry">
            <mxPoint x="74" y="1010" as="sourcePoint" />
            <mxPoint x="240" y="1010" as="targetPoint" />
          </mxGeometry>
        </mxCell>
        <mxCell id="sHYd67XL0eap0bm4rIJg-85" value="играть" style="edgeLabel;html=1;align=center;verticalAlign=middle;resizable=0;points=[];" vertex="1" connectable="0" parent="sHYd67XL0eap0bm4rIJg-84">
          <mxGeometry x="0.1494" y="-1" relative="1" as="geometry">
            <mxPoint y="4" as="offset" />
          </mxGeometry>
        </mxCell>
        <mxCell id="sHYd67XL0eap0bm4rIJg-88" value="" style="rounded=0;whiteSpace=wrap;html=1;" vertex="1" parent="1">
          <mxGeometry x="220" y="1080" width="20" height="620" as="geometry" />
        </mxCell>
        <mxCell id="sHYd67XL0eap0bm4rIJg-89" value="" style="rounded=0;whiteSpace=wrap;html=1;" vertex="1" parent="1">
          <mxGeometry x="404" y="1140" width="20" height="560" as="geometry" />
        </mxCell>
        <mxCell id="sHYd67XL0eap0bm4rIJg-90" value="" style="rounded=0;whiteSpace=wrap;html=1;" vertex="1" parent="1">
          <mxGeometry x="590" y="1180" width="20" height="520" as="geometry" />
        </mxCell>
        <mxCell id="sHYd67XL0eap0bm4rIJg-91" value="alt" style="shape=umlFrame;whiteSpace=wrap;html=1;pointerEvents=0;" vertex="1" parent="1">
          <mxGeometry y="1190" width="770" height="500" as="geometry" />
        </mxCell>
        <mxCell id="sHYd67XL0eap0bm4rIJg-92" value="" style="endArrow=classic;html=1;rounded=0;" edge="1" parent="1">
          <mxGeometry width="50" height="50" relative="1" as="geometry">
            <mxPoint x="80" y="1100" as="sourcePoint" />
            <mxPoint x="220" y="1100" as="targetPoint" />
          </mxGeometry>
        </mxCell>
        <mxCell id="sHYd67XL0eap0bm4rIJg-93" value="Сохранить прогресс" style="edgeLabel;html=1;align=center;verticalAlign=middle;resizable=0;points=[];" vertex="1" connectable="0" parent="sHYd67XL0eap0bm4rIJg-92">
          <mxGeometry x="-0.2027" y="2" relative="1" as="geometry">
            <mxPoint x="4" y="-8" as="offset" />
          </mxGeometry>
        </mxCell>
        <mxCell id="sHYd67XL0eap0bm4rIJg-94" value="" style="endArrow=classic;html=1;rounded=0;entryX=0;entryY=0;entryDx=0;entryDy=0;" edge="1" parent="1" target="sHYd67XL0eap0bm4rIJg-89">
          <mxGeometry width="50" height="50" relative="1" as="geometry">
            <mxPoint x="240" y="1140" as="sourcePoint" />
            <mxPoint x="380" y="1140" as="targetPoint" />
          </mxGeometry>
        </mxCell>
        <mxCell id="sHYd67XL0eap0bm4rIJg-95" value="Сохранить прогресс" style="edgeLabel;html=1;align=center;verticalAlign=middle;resizable=0;points=[];" vertex="1" connectable="0" parent="sHYd67XL0eap0bm4rIJg-94">
          <mxGeometry x="-0.2027" y="2" relative="1" as="geometry">
            <mxPoint x="4" y="-8" as="offset" />
          </mxGeometry>
        </mxCell>
        <mxCell id="sHYd67XL0eap0bm4rIJg-96" value="" style="endArrow=classic;html=1;rounded=0;entryX=0;entryY=0;entryDx=0;entryDy=0;" edge="1" parent="1">
          <mxGeometry width="50" height="50" relative="1" as="geometry">
            <mxPoint x="424" y="1180" as="sourcePoint" />
            <mxPoint x="588" y="1180" as="targetPoint" />
          </mxGeometry>
        </mxCell>
        <mxCell id="sHYd67XL0eap0bm4rIJg-97" value="Сохранить прогресс" style="edgeLabel;html=1;align=center;verticalAlign=middle;resizable=0;points=[];" vertex="1" connectable="0" parent="sHYd67XL0eap0bm4rIJg-96">
          <mxGeometry x="-0.2027" y="2" relative="1" as="geometry">
            <mxPoint x="4" y="-8" as="offset" />
          </mxGeometry>
        </mxCell>
        <mxCell id="sHYd67XL0eap0bm4rIJg-98" value="(Ошибка сохранения)" style="text;html=1;align=center;verticalAlign=middle;resizable=0;points=[];autosize=1;strokeColor=none;fillColor=none;" vertex="1" parent="1">
          <mxGeometry x="70" y="1190" width="140" height="30" as="geometry" />
        </mxCell>
        <mxCell id="sHYd67XL0eap0bm4rIJg-99" value="" style="endArrow=none;html=1;rounded=0;exitX=1.001;exitY=0.585;exitDx=0;exitDy=0;exitPerimeter=0;startFill=1;startArrow=classic;dashed=1;" edge="1" parent="1">
          <mxGeometry width="50" height="50" relative="1" as="geometry">
            <mxPoint x="424" y="1220" as="sourcePoint" />
            <mxPoint x="590" y="1220" as="targetPoint" />
          </mxGeometry>
        </mxCell>
        <mxCell id="sHYd67XL0eap0bm4rIJg-100" value="Ошибка сохранения" style="edgeLabel;html=1;align=center;verticalAlign=middle;resizable=0;points=[];" vertex="1" connectable="0" parent="sHYd67XL0eap0bm4rIJg-99">
          <mxGeometry x="0.1494" y="-1" relative="1" as="geometry">
            <mxPoint y="4" as="offset" />
          </mxGeometry>
        </mxCell>
        <mxCell id="sHYd67XL0eap0bm4rIJg-102" value="" style="endArrow=none;html=1;rounded=0;exitX=1.001;exitY=0.585;exitDx=0;exitDy=0;exitPerimeter=0;startFill=1;startArrow=classic;dashed=1;" edge="1" parent="1">
          <mxGeometry width="50" height="50" relative="1" as="geometry">
            <mxPoint x="238" y="1250" as="sourcePoint" />
            <mxPoint x="404" y="1250" as="targetPoint" />
          </mxGeometry>
        </mxCell>
        <mxCell id="sHYd67XL0eap0bm4rIJg-103" value="Ошибка сохранения" style="edgeLabel;html=1;align=center;verticalAlign=middle;resizable=0;points=[];" vertex="1" connectable="0" parent="sHYd67XL0eap0bm4rIJg-102">
          <mxGeometry x="0.1494" y="-1" relative="1" as="geometry">
            <mxPoint y="4" as="offset" />
          </mxGeometry>
        </mxCell>
        <mxCell id="sHYd67XL0eap0bm4rIJg-104" value="" style="endArrow=none;html=1;rounded=0;exitX=1.001;exitY=0.585;exitDx=0;exitDy=0;exitPerimeter=0;startFill=1;startArrow=classic;dashed=1;" edge="1" parent="1">
          <mxGeometry width="50" height="50" relative="1" as="geometry">
            <mxPoint x="74" y="1280" as="sourcePoint" />
            <mxPoint x="220" y="1280" as="targetPoint" />
          </mxGeometry>
        </mxCell>
        <mxCell id="sHYd67XL0eap0bm4rIJg-105" value="Ошибка сохранения" style="edgeLabel;html=1;align=center;verticalAlign=middle;resizable=0;points=[];" vertex="1" connectable="0" parent="sHYd67XL0eap0bm4rIJg-104">
          <mxGeometry x="0.1494" y="-1" relative="1" as="geometry">
            <mxPoint y="4" as="offset" />
          </mxGeometry>
        </mxCell>
        <mxCell id="sHYd67XL0eap0bm4rIJg-106" value="" style="endArrow=none;dashed=1;html=1;rounded=0;" edge="1" parent="1">
          <mxGeometry width="50" height="50" relative="1" as="geometry">
            <mxPoint x="-40" y="1360" as="sourcePoint" />
            <mxPoint x="811.5999755859375" y="1360" as="targetPoint" />
          </mxGeometry>
        </mxCell>
        <mxCell id="sHYd67XL0eap0bm4rIJg-107" value="(Прогресс сохранения)" style="text;html=1;align=center;verticalAlign=middle;resizable=0;points=[];autosize=1;strokeColor=none;fillColor=none;" vertex="1" parent="1">
          <mxGeometry x="-5" y="1370" width="150" height="30" as="geometry" />
        </mxCell>
        <mxCell id="sHYd67XL0eap0bm4rIJg-108" value="" style="endArrow=none;html=1;rounded=0;exitX=1.001;exitY=0.585;exitDx=0;exitDy=0;exitPerimeter=0;startFill=1;startArrow=classic;dashed=1;" edge="1" parent="1">
          <mxGeometry width="50" height="50" relative="1" as="geometry">
            <mxPoint x="74" y="1450" as="sourcePoint" />
            <mxPoint x="220" y="1450" as="targetPoint" />
          </mxGeometry>
        </mxCell>
        <mxCell id="sHYd67XL0eap0bm4rIJg-109" value="прогресс сохранен" style="edgeLabel;html=1;align=center;verticalAlign=middle;resizable=0;points=[];" vertex="1" connectable="0" parent="sHYd67XL0eap0bm4rIJg-108">
          <mxGeometry x="0.1494" y="-1" relative="1" as="geometry">
            <mxPoint y="4" as="offset" />
          </mxGeometry>
        </mxCell>
        <mxCell id="sHYd67XL0eap0bm4rIJg-110" value="" style="endArrow=none;html=1;rounded=0;startFill=1;startArrow=classic;dashed=1;" edge="1" parent="1">
          <mxGeometry width="50" height="50" relative="1" as="geometry">
            <mxPoint x="240" y="1430" as="sourcePoint" />
            <mxPoint x="400" y="1430" as="targetPoint" />
          </mxGeometry>
        </mxCell>
        <mxCell id="sHYd67XL0eap0bm4rIJg-111" value="прогресс сохранен" style="edgeLabel;html=1;align=center;verticalAlign=middle;resizable=0;points=[];" vertex="1" connectable="0" parent="sHYd67XL0eap0bm4rIJg-110">
          <mxGeometry x="0.1494" y="-1" relative="1" as="geometry">
            <mxPoint y="8" as="offset" />
          </mxGeometry>
        </mxCell>
        <mxCell id="sHYd67XL0eap0bm4rIJg-112" value="" style="endArrow=none;html=1;rounded=0;startFill=1;startArrow=classic;dashed=1;" edge="1" parent="1">
          <mxGeometry width="50" height="50" relative="1" as="geometry">
            <mxPoint x="430" y="1400" as="sourcePoint" />
            <mxPoint x="590" y="1400" as="targetPoint" />
          </mxGeometry>
        </mxCell>
        <mxCell id="sHYd67XL0eap0bm4rIJg-113" value="прогресс сохранен" style="edgeLabel;html=1;align=center;verticalAlign=middle;resizable=0;points=[];" vertex="1" connectable="0" parent="sHYd67XL0eap0bm4rIJg-112">
          <mxGeometry x="0.1494" y="-1" relative="1" as="geometry">
            <mxPoint y="8" as="offset" />
          </mxGeometry>
        </mxCell>
      </root>
    </mxGraphModel>
  </diagram>
</mxfile>
